<?xml version="1.0" standalone="no"?>
<svg
  width="600"
  height="600"
  viewBox="0 0 600 600"
  xmlns="http://www.w3.org/2000/svg"
>
  <g transform="translate(300,300)">
    <path d="M116.9,-133.2C155,-107.4,191.7,-73.8,213.5,-26.4C235.2,21,241.9,82.2,218.4,129.2C195,176.2,141.4,208.8,83.3,230.8C25.2,252.8,-37.5,264.1,-83.6,242C-129.7,219.9,-159.3,164.4,-173.6,113.1C-187.9,61.7,-187,14.5,-180.5,-33.5C-174,-81.4,-161.9,-129.9,-130.9,-157C-99.8,-184,-49.9,-189.5,-5.2,-183.2C39.4,-177,78.8,-159,116.9,-133.2Z" fill="#fffcd4" />
  </g>
</svg>
  